<svg width="27" height="28" viewBox="0 0 27 28" fill="none" xmlns="http://www.w3.org/2000/svg">
<path id="Icon material-format-shapes" d="M26.5399 8.07723V0.930176H19.3928V3.31253H7.48104V0.930176H0.333984V8.07723H2.71634V19.989H0.333984V27.1361H7.48104V24.7537H19.3928V27.1361H26.5399V19.989H24.1575V8.07723H26.5399ZM2.71634 3.31253H5.09869V5.69488H2.71634V3.31253ZM5.09869 24.7537H2.71634V22.3714H5.09869V24.7537ZM19.3928 22.3714H7.48104V19.989H5.09869V8.07723H7.48104V5.69488H19.3928V8.07723H21.7752V19.989H19.3928V22.3714ZM24.1575 24.7537H21.7752V22.3714H24.1575V24.7537ZM21.7752 5.69488V3.31253H24.1575V5.69488H21.7752ZM14.6535 18.5159H12.5539V11.9851H9.69504V10.1777H17.4687V11.9843H14.6535V18.5159Z" fill="#3E8AFB"/>
</svg>
